<!--?xml version="1.0" standalone="no"?-->
              <svg id="sw-js-blob-svg" viewBox="0 0 100 100" xmlns="http://www.w3.org/2000/svg" version="1.1">
                    <defs> 
                        <linearGradient id="sw-gradient" x1="0" x2="1" y1="1" y2="0">
                            <stop id="stop1" stop-color="rgba(9, 98, 255, 1)" offset="0%"></stop>
                            <stop id="stop2" stop-color="rgba(9, 98, 255, 1)" offset="100%"></stop>
                        </linearGradient>
                    </defs>
                <path fill="url(#sw-gradient)" d="M19.8,-24.6C27,-17.7,34.8,-12.6,36.4,-6.1C38,0.5,33.3,8.5,28.8,16.9C24.3,25.3,19.9,34.1,13,37.2C6.1,40.3,-3.3,37.7,-11.8,34C-20.4,30.3,-28,25.4,-32.6,18.4C-37.3,11.3,-39,2.1,-37.1,-6.1C-35.1,-14.2,-29.4,-21.3,-22.7,-28.2C-15.9,-35.2,-7.9,-42,-0.8,-41C6.4,-40.1,12.7,-31.4,19.8,-24.6Z" width="100%" height="100%" transform="translate(50 50)" stroke-width="0" style="transition: all 0.3s ease 0s;"></path>
              </svg>