<!--?xml version="1.0" standalone="no"?-->
              <svg id="sw-js-blob-svg" viewBox="0 0 100 100" xmlns="http://www.w3.org/2000/svg" version="1.1">
                    <defs> 
                        <linearGradient id="sw-gradient" x1="0" x2="1" y1="1" y2="0">
                            <stop id="stop1" stop-color="rgba(12, 37, 81, 1)" offset="0%"></stop>
                            <stop id="stop2" stop-color="rgba(12, 37, 81, 1)" offset="100%"></stop>
                        </linearGradient>
                    </defs>
                <path fill="url(#sw-gradient)" d="M24.3,-29.7C28.9,-25.2,28.2,-15,29.8,-5.4C31.3,4.3,35.2,13.4,32.5,19.4C29.8,25.4,20.6,28.3,11.8,30.7C3.1,33.1,-5.2,35.1,-11,32.1C-16.8,29.2,-20.1,21.3,-23.7,14.1C-27.3,6.9,-31.3,0.4,-30.7,-5.8C-30,-11.9,-24.8,-17.7,-19,-21.9C-13.1,-26.2,-6.5,-29,1.7,-31C9.9,-33,19.8,-34.2,24.3,-29.7Z" width="100%" height="100%" transform="translate(50 50)" stroke-width="0" style="transition: all 0.3s ease 0s;"></path>
              </svg>